<?xml version="1.0" encoding="UTF-8"?>
<svg xmlns="http://www.w3.org/2000/svg" viewBox="0 0 265.29 229.844" fill="none">
  <g data-name="Layer 1">
    <g data-name="Generative Object">
      <path
        data-name="circle1"
        fill="#121f36"
        stroke="#121f36"
        stroke-width="1.25"
        stroke-linejoin="round"
        vector-effect="non-scaling-stroke"
        d="M44.181,188.162c1.415-.938,2.484-.703,4.26-.824,27.626,33.322,72.882,46.822,114.224,33.528,40.731-13.097,70.235-49.428,73.747-92.3.278-3.397.37-6.242,4.358-6.856-.25,36.467-19.922,69.855-48.46,89.071-47.089,31.709-111.563,23.65-148.128-22.62Z"/>
      <g data-name="S" fill="#121f36" stroke="#121f36" stroke-width="1.25" stroke-linejoin="round" vector-effect="non-scaling-stroke">
        <path d="M77.878,184.562v10.581c16.393,1.773,31.235,2.438,42.976,2.438,17.721,0,31.678-1.552,42.976-8.641,12.342-7.486,17.832-20.888,18.693-34.632-34.662,15.459-70.917,25.958-104.645,30.253Z"/>
        <path d="M113.766,127.578c7.753,2.216,16.171,4.431,23.26,6.646,9.498,3.098,14.372,7.738,14.992,16.425,8.099-2.962,15.694-6.016,22.558-9.032,2.285-1.004,4.624-2.044,7.001-3.12-3.632-18.3-16.403-27.631-37.683-32.628-7.975-2.214-15.286-3.987-21.932-5.98-9.303-3.323-13.955-8.197-13.955-17.28,0-6.423,2.88-13.069,9.968-15.949,6.423-2.438,13.069-2.659,21.266-2.659,9.968,0,23.703,1.329,36.108,2.88v-24.589c-14.842-1.773-28.355-2.659-39.21-2.659-16.171,0-29.242,1.329-40.539,8.418-12.626,7.754-18.164,22.153-18.164,37.217,0,24.367,12.405,35.665,36.33,42.31Z"/>
      </g>
      <path
        data-name="ring"
        fill="#121f36"
        stroke="#121f36"
        stroke-width="1.25"
        stroke-linejoin="round"
        vector-effect="non-scaling-stroke"
        d="M49.512,182.413c-3.797,0-7.581-.103-11.248-.307-6.249-.346-27.258-2.339-35.232-13.438-2.966-4.128-3.761-8.959-2.362-14.359.224-.863.993-1.446,1.847-1.446.102,0,.205.009.308.026.972.16,1.665,1.042,1.601,2.039-.314,4.886.875,8.796,3.633,11.953,6.524,7.469,20.5,9.084,30.446,9.648,2.928.167,5.987.251,9.092.251,43.087,0,94.024-15.852,127.327-30.688,24.074-10.724,54.202-25.625,73.65-45.83,3.443-3.577,14.412-16.026,10.979-26.011-1.99-5.787-7.505-8.529-12.519-10.644l-4.055-1.711c-.792-.335-1.268-1.163-1.163-2.027s.764-1.55,1.613-1.68c.513-.079,1.036-.118,1.552-.118,3.057,0,5.622,1.371,7.884,2.58.511.273,1.018.544,1.527.797,4.872,2.422,8.3,6.281,9.915,11.158,1.712,5.172,1.177,10.992-1.506,16.387-9.874,19.853-34.633,36.133-44.819,42.211-53.74,32.066-116.719,51.21-168.469,51.21Z"/>
      <path
        data-name="circle2"
        fill="#121f36"
        stroke="#121f36"
        stroke-width="1.25"
        stroke-linejoin="round"
        vector-effect="non-scaling-stroke"
        d="M39.084,173.753c-1.695.745-3.282.712-4.539.317C3.458,118.32,25.574,48.346,83.457,20.705l1.665,3.64C28.724,51.015,7.333,120.002,39.084,173.753Z"/>
      <path
        data-name="circle3"
        fill="#121f36"
        stroke="#121f36"
        stroke-width="1.25"
        stroke-linejoin="round"
        vector-effect="non-scaling-stroke"
        d="M236.236,107.474c-7.544-58.055-59.645-99.298-117.578-92.594l-.441-2.689c-.141-.858,1.167-1.221,2.523-1.354,58.408-5.711,110.636,35.57,118.947,93.688-.195.937-1.979,2.077-3.452,2.95Z"/>
    </g>
    <!-- Star scaled 1.4x about its own center (~100, 13). -->
    <path
      data-name="star"
      fill="#f7931e"
      stroke="#f7931e"
      stroke-width="1.25"
      stroke-linejoin="round"
      vector-effect="non-scaling-stroke"
      transform="translate(100 13) scale(1.4) translate(-100 -13)"
      d="M112.527,10.108l-4.998,5.416,1.628,7.186c.117.512-.069,1.045-.476,1.376-.23.187-.51.29-.795.306-.22.012-.442-.029-.649-.124l-6.696-3.078-6.332,3.769c-.452.27-1.016.258-1.457-.028-.44-.286-.68-.796-.619-1.317l.861-7.318-5.543-4.856c-.395-.346-.559-.886-.423-1.393.136-.506.547-.892,1.062-.996l7.227-1.444,2.907-6.771c.206-.483.669-.805,1.194-.833s1.019.244,1.276.702l3.607,6.426,7.34.672c.523.048.973.388,1.161.878.189.489.081,1.044-.273,1.43h.001Z"/>
  </g>
</svg>
